<svg xmlns="http://www.w3.org/2000/svg" viewBox="0 0 16 16">
<desc xmlns:basic="http://github.com/DavidBruchmann/wdb_news_snapin">
  <basic:title>Icon for 'wdb_news_snapin'</basic:title>
  <basic:descr>Icon for TYPO3 extension 'wdb_news_snapin'</basic:descr>
  <basic:license>https://www.gnu.org/licenses/gpl-3.0.en.html</basic:license>
</desc>
<metadata>
  <rdf:RDF xmlns:rdf = "http://www.w3.org/1999/02/22-rdf-syntax-ns#" xmlns:rdfs = "http://www.w3.org/2000/01/rdf-schema#" xmlns:dc = "http://purl.org/dc/elements/1.1/" >
    <rdf:Description about="https://github.com/DavidBruchmann/wdb_news_snapin"
      dc:title="Icon for 'wdb_news_snapin'"
      dc:description="Icon for TYPO3 extension 'wdb_news_snapin'"
      dc:publisher="Webdevelopment Barlian"
      dc:date="2020-06-15"
      dc:format="image/svg+xml"
      dc:language="en"
      dc:license="https://www.gnu.org/licenses/gpl-3.0.en.html">
      <dc:creator>
        <rdf:Bag>
          <rdf:li>David Bruchmann</rdf:li>
        </rdf:Bag>
      </dc:creator>
    </rdf:Description>
  </rdf:RDF>
</metadata>
<defs>
  <linearGradient id="Gradient1">
    <stop offset="0%" stop-color="#B9B9B9" stop-opacity="0"/>
    <stop offset="100%" stop-color="#999"/>
  </linearGradient>
  <linearGradient id="Gradient2">
    <stop offset="0%" stop-color="#999"/>
    <stop offset="100%" stop-color="#B9B9B9" stop-opacity="0"/>
  </linearGradient>
</defs>
<path id="bg" fill="#fff" d="M0 0h16v16H0V0z"/>
<path id="frame" fill="#999" d="M0 0v16h16V0H0zM1 1h14v14H1V1z"/>
<g>
    <path id="sidebar-left-top" fill="#555" d="M2.5 2.5h1v1h-1z" style="fill:#555;stroke:#555;stroke-width:1;stroke-miterlimit:2;stroke-dasharray:none;"/>
    <path id="topbar-between" fill="#f00" d="M5 2h6v2H5v2z"/>
    <path id="sidebar-right-top" fill="#555" d="M12.5 2.5h1v1h-1z" style="fill:#555;stroke:#555;stroke-width:1;stroke-miterlimit:2;stroke-dasharray:none;"/>
</g>
<g>
    <path id="sidebar-left-between" fill="#555" d="M2.5 5.5h1v5h-1z" style="fill:#555;stroke:#555;stroke-width:1;stroke-miterlimit:2;stroke-dasharray:none;"/>
    <g>
        <path id="line-1" fill="url(#Gradient1)" d="M5 5h6v1H5v1z"/>
        <path id="line-2" fill="url(#Gradient2)" d="M5 6h6v1H5v1z"/>
        <path id="line-3" fill="url(#Gradient1)" d="M5 7h6v1H5v1z"/>
        <path id="line-4" fill="url(#Gradient2)" d="M5 8h6v1H5v1z"/>
        <path id="line-5" fill="url(#Gradient1)" d="M5 9h6v1H5v1z"/>
        <path id="line-6" fill="url(#Gradient2)" d="M5 10h6v1H5v1z"/>
    </g>
    <path id="sidebar-right-between" fill="#555" d="M12.5 5.5h1v5h-1z" style="fill:#555;stroke:#555;stroke-width:1;stroke-miterlimit:2;stroke-dasharray:none;"/>
</g>
<g>
    <path id="sidebar-left-bottom" fill="#555" d="M2.5 12.5h1v1h-1z" style="fill:#555;stroke:#555;stroke-width:1;stroke-miterlimit:2;stroke-dasharray:none;"/>
    <path id="bottombar-between" fill="#555" d="M5 12h6v2H5v1z"/>
    <path id="sidebar-right-bottom" fill="#555" d="M12.5 12.5h1v1h-1z" style="fill:#555;stroke:#555;stroke-width:1;stroke-miterlimit:2;stroke-dasharray:none;"/>
</g>
</svg>